<?xml version="1.0" encoding="UTF-8" standalone="no"?>
<!DOCTYPE svg PUBLIC "-//W3C//DTD SVG 1.0//EN" "http://www.w3.org/TR/2001/PR-SVG-20010719/DTD/svg10.dtd">
<svg width="25cm" height="18cm" viewBox="19 5 484 343" xmlns="http://www.w3.org/2000/svg" xmlns:xlink="http://www.w3.org/1999/xlink">
  <g>
    <path style="fill: #c9c9b6" d="M 25.9718 48.3287 L 30.0438,44.5291 L 60.4474,44.5291 L 56.3819,48.3287 L 25.9718,48.3287z"/>
    <path style="fill: none; fill-opacity:0; stroke-width: 0.02; stroke: #494936" d="M 25.9718 48.3287 L 30.0438,44.5291 L 60.4474,44.5291 L 56.3819,48.3287 L 25.9718,48.3287"/>
    <path style="fill: #b7b79d" d="M 25.9718 48.3287 L 56.3819,48.3287 L 56.3819,54.0412 L 25.9718,54.0412 L 25.9718,48.3287z"/>
    <path style="fill: none; fill-opacity:0; stroke-width: 0.02; stroke: #494936" d="M 25.9718 48.3287 L 56.3819,48.3287 L 56.3819,54.0412 L 25.9718,54.0412 L 25.9718,48.3287"/>
    <path style="fill: #7a7a5a" d="M 56.3819 54.0412 L 60.4474,49.9887 L 60.4474,44.5291 L 56.3819,48.3287 L 56.3819,54.0412z"/>
    <path style="fill: none; fill-opacity:0; stroke-width: 0.02; stroke: #494936" d="M 56.3819 54.0412 L 60.4474,49.9887 L 60.4474,44.5291 L 56.3819,48.3287 L 56.3819,54.0412"/>
    <path style="fill: #000000" d="M 26.9379 47.6155 L 30.0438,44.5291 L 59.7277,44.5291 L 56.6153,47.6155 L 26.9379,47.6155z"/>
    <path style="fill: none; fill-opacity:0; stroke-width: 0.02; stroke: #000000" d="M 26.9379 47.6155 L 30.0438,44.5291 L 59.7277,44.5291 L 56.6153,47.6155 L 26.9379,47.6155"/>
    <path style="fill: #c9c9b6" d="M 25.9718 23.0864 L 29.3305,20 L 59.7277,20 L 56.3819,23.0864 L 25.9718,23.0864z"/>
    <path style="fill: none; fill-opacity:0; stroke-width: 0.02; stroke: #494936" d="M 25.9718 23.0864 L 29.3305,20 L 59.7277,20 L 56.3819,23.0864 L 25.9718,23.0864"/>
    <path style="fill: #b7b79d" d="M 25.9718 23.0864 L 56.6089,23.0864 L 56.6089,47.1422 L 25.9718,47.1422 L 25.9718,23.0864z"/>
    <path style="fill: none; fill-opacity:0; stroke-width: 0.02; stroke: #494936" d="M 25.9718 23.0864 L 56.6024,23.0864 L 56.6024,47.1292 L 25.9718,47.1292 L 25.9718,23.0864"/>
    <path style="fill: #ffffff" d="M 28.6238 26.1858 L 53.9893,26.1858 L 53.9893,44.7625 L 28.6238,44.7625 L 28.6238,26.1858z"/>
    <path style="fill: none; fill-opacity:0; stroke-width: 0.02; stroke: #494936" d="M 28.6238 26.1858 L 53.9828,26.1858 L 53.9828,44.7496 L 28.6238,44.7496 L 28.6238,26.1858"/>
    <path style="fill: #7a7a5a" d="M 56.3819 46.8893 L 59.7277,43.563 L 59.7277,20 L 56.3819,23.0864 L 56.3819,46.8893z"/>
    <path style="fill: none; fill-opacity:0; stroke-width: 0.02; stroke: #494936" d="M 56.3819 46.8893 L 59.7277,43.563 L 59.7277,20 L 56.3819,23.0864 L 56.3819,46.8893"/>
    <path style="fill: #c9c9b6" d="M 20 58.8005 L 24.7852,52.8546 L 57.8019,52.8546 L 53.0232,58.8005 L 20,58.8005z"/>
    <path style="fill: none; fill-opacity:0; stroke-width: 0.02; stroke: #494936" d="M 20.0324 58.7615 L 24.7852,52.8546 L 57.8019,52.8546 L 53.0232,58.8005 L 20.0324,58.8005"/>
    <path style="fill: #7a7a5a" d="M 53.0232 60 L 57.8019,54.9943 L 57.8019,52.8546 L 53.0232,58.8005 L 53.0232,60z"/>
    <path style="fill: none; fill-opacity:0; stroke-width: 0.02; stroke: #494936" d="M 53.0426 59.9676 L 57.8019,54.9943 L 57.8019,52.8546 L 53.0232,58.8005 L 53.0232,59.9676"/>
    <path style="fill: #b7b79d" d="M 20 58.8005 L 53.0232,58.8005 L 53.0232,60 L 20,60 L 20,58.8005z"/>
    <path style="fill: none; fill-opacity:0; stroke-width: 0.02; stroke: #494936" d="M 20.0324 58.8005 L 53.0232,58.8005 L 53.0232,59.9676"/>
  </g>
  <g>
    <path style="fill: #c9c9b6" d="M 85.9718 48.3287 L 90.0438,44.5291 L 120.447,44.5291 L 116.382,48.3287 L 85.9718,48.3287z"/>
    <path style="fill: none; fill-opacity:0; stroke-width: 0.02; stroke: #494936" d="M 85.9718 48.3287 L 90.0438,44.5291 L 120.447,44.5291 L 116.382,48.3287 L 85.9718,48.3287"/>
    <path style="fill: #b7b79d" d="M 85.9718 48.3287 L 116.382,48.3287 L 116.382,54.0412 L 85.9718,54.0412 L 85.9718,48.3287z"/>
    <path style="fill: none; fill-opacity:0; stroke-width: 0.02; stroke: #494936" d="M 85.9718 48.3287 L 116.382,48.3287 L 116.382,54.0412 L 85.9718,54.0412 L 85.9718,48.3287"/>
    <path style="fill: #7a7a5a" d="M 116.382 54.0412 L 120.447,49.9887 L 120.447,44.5291 L 116.382,48.3287 L 116.382,54.0412z"/>
    <path style="fill: none; fill-opacity:0; stroke-width: 0.02; stroke: #494936" d="M 116.382 54.0412 L 120.447,49.9887 L 120.447,44.5291 L 116.382,48.3287 L 116.382,54.0412"/>
    <path style="fill: #000000" d="M 86.9379 47.6155 L 90.0438,44.5291 L 119.728,44.5291 L 116.615,47.6155 L 86.9379,47.6155z"/>
    <path style="fill: none; fill-opacity:0; stroke-width: 0.02; stroke: #000000" d="M 86.9379 47.6155 L 90.0438,44.5291 L 119.728,44.5291 L 116.615,47.6155 L 86.9379,47.6155"/>
    <path style="fill: #c9c9b6" d="M 85.9718 23.0864 L 89.3305,20 L 119.728,20 L 116.382,23.0864 L 85.9718,23.0864z"/>
    <path style="fill: none; fill-opacity:0; stroke-width: 0.02; stroke: #494936" d="M 85.9718 23.0864 L 89.3305,20 L 119.728,20 L 116.382,23.0864 L 85.9718,23.0864"/>
    <path style="fill: #b7b79d" d="M 85.9718 23.0864 L 116.609,23.0864 L 116.609,47.1422 L 85.9718,47.1422 L 85.9718,23.0864z"/>
    <path style="fill: none; fill-opacity:0; stroke-width: 0.02; stroke: #494936" d="M 85.9718 23.0864 L 116.602,23.0864 L 116.602,47.1292 L 85.9718,47.1292 L 85.9718,23.0864"/>
    <path style="fill: #ffffff" d="M 88.6238 26.1858 L 113.989,26.1858 L 113.989,44.7625 L 88.6238,44.7625 L 88.6238,26.1858z"/>
    <path style="fill: none; fill-opacity:0; stroke-width: 0.02; stroke: #494936" d="M 88.6238 26.1858 L 113.983,26.1858 L 113.983,44.7496 L 88.6238,44.7496 L 88.6238,26.1858"/>
    <path style="fill: #7a7a5a" d="M 116.382 46.8893 L 119.728,43.563 L 119.728,20 L 116.382,23.0864 L 116.382,46.8893z"/>
    <path style="fill: none; fill-opacity:0; stroke-width: 0.02; stroke: #494936" d="M 116.382 46.8893 L 119.728,43.563 L 119.728,20 L 116.382,23.0864 L 116.382,46.8893"/>
    <path style="fill: #c9c9b6" d="M 80 58.8005 L 84.7852,52.8546 L 117.802,52.8546 L 113.023,58.8005 L 80,58.8005z"/>
    <path style="fill: none; fill-opacity:0; stroke-width: 0.02; stroke: #494936" d="M 80.0324 58.7615 L 84.7852,52.8546 L 117.802,52.8546 L 113.023,58.8005 L 80.0324,58.8005"/>
    <path style="fill: #7a7a5a" d="M 113.023 60 L 117.802,54.9943 L 117.802,52.8546 L 113.023,58.8005 L 113.023,60z"/>
    <path style="fill: none; fill-opacity:0; stroke-width: 0.02; stroke: #494936" d="M 113.043 59.9676 L 117.802,54.9943 L 117.802,52.8546 L 113.023,58.8005 L 113.023,59.9676"/>
    <path style="fill: #b7b79d" d="M 80 58.8005 L 113.023,58.8005 L 113.023,60 L 80,60 L 80,58.8005z"/>
    <path style="fill: none; fill-opacity:0; stroke-width: 0.02; stroke: #494936" d="M 80.0324 58.8005 L 113.023,58.8005 L 113.023,59.9676"/>
  </g>
  <g>
    <path style="fill: #c9c9b6" d="M 285.972 48.3287 L 290.044,44.5291 L 320.447,44.5291 L 316.382,48.3287 L 285.972,48.3287z"/>
    <path style="fill: none; fill-opacity:0; stroke-width: 0.02; stroke: #494936" d="M 285.972 48.3287 L 290.044,44.5291 L 320.447,44.5291 L 316.382,48.3287 L 285.972,48.3287"/>
    <path style="fill: #b7b79d" d="M 285.972 48.3287 L 316.382,48.3287 L 316.382,54.0412 L 285.972,54.0412 L 285.972,48.3287z"/>
    <path style="fill: none; fill-opacity:0; stroke-width: 0.02; stroke: #494936" d="M 285.972 48.3287 L 316.382,48.3287 L 316.382,54.0412 L 285.972,54.0412 L 285.972,48.3287"/>
    <path style="fill: #7a7a5a" d="M 316.382 54.0412 L 320.447,49.9887 L 320.447,44.5291 L 316.382,48.3287 L 316.382,54.0412z"/>
    <path style="fill: none; fill-opacity:0; stroke-width: 0.02; stroke: #494936" d="M 316.382 54.0412 L 320.447,49.9887 L 320.447,44.5291 L 316.382,48.3287 L 316.382,54.0412"/>
    <path style="fill: #000000" d="M 286.938 47.6155 L 290.044,44.5291 L 319.728,44.5291 L 316.615,47.6155 L 286.938,47.6155z"/>
    <path style="fill: none; fill-opacity:0; stroke-width: 0.02; stroke: #000000" d="M 286.938 47.6155 L 290.044,44.5291 L 319.728,44.5291 L 316.615,47.6155 L 286.938,47.6155"/>
    <path style="fill: #c9c9b6" d="M 285.972 23.0864 L 289.331,20 L 319.728,20 L 316.382,23.0864 L 285.972,23.0864z"/>
    <path style="fill: none; fill-opacity:0; stroke-width: 0.02; stroke: #494936" d="M 285.972 23.0864 L 289.331,20 L 319.728,20 L 316.382,23.0864 L 285.972,23.0864"/>
    <path style="fill: #b7b79d" d="M 285.972 23.0864 L 316.609,23.0864 L 316.609,47.1422 L 285.972,47.1422 L 285.972,23.0864z"/>
    <path style="fill: none; fill-opacity:0; stroke-width: 0.02; stroke: #494936" d="M 285.972 23.0864 L 316.602,23.0864 L 316.602,47.1292 L 285.972,47.1292 L 285.972,23.0864"/>
    <path style="fill: #ffffff" d="M 288.624 26.1858 L 313.989,26.1858 L 313.989,44.7625 L 288.624,44.7625 L 288.624,26.1858z"/>
    <path style="fill: none; fill-opacity:0; stroke-width: 0.02; stroke: #494936" d="M 288.624 26.1858 L 313.983,26.1858 L 313.983,44.7496 L 288.624,44.7496 L 288.624,26.1858"/>
    <path style="fill: #7a7a5a" d="M 316.382 46.8893 L 319.728,43.563 L 319.728,20 L 316.382,23.0864 L 316.382,46.8893z"/>
    <path style="fill: none; fill-opacity:0; stroke-width: 0.02; stroke: #494936" d="M 316.382 46.8893 L 319.728,43.563 L 319.728,20 L 316.382,23.0864 L 316.382,46.8893"/>
    <path style="fill: #c9c9b6" d="M 280 58.8005 L 284.785,52.8546 L 317.802,52.8546 L 313.023,58.8005 L 280,58.8005z"/>
    <path style="fill: none; fill-opacity:0; stroke-width: 0.02; stroke: #494936" d="M 280.032 58.7615 L 284.785,52.8546 L 317.802,52.8546 L 313.023,58.8005 L 280.032,58.8005"/>
    <path style="fill: #7a7a5a" d="M 313.023 60 L 317.802,54.9943 L 317.802,52.8546 L 313.023,58.8005 L 313.023,60z"/>
    <path style="fill: none; fill-opacity:0; stroke-width: 0.02; stroke: #494936" d="M 313.043 59.9676 L 317.802,54.9943 L 317.802,52.8546 L 313.023,58.8005 L 313.023,59.9676"/>
    <path style="fill: #b7b79d" d="M 280 58.8005 L 313.023,58.8005 L 313.023,60 L 280,60 L 280,58.8005z"/>
    <path style="fill: none; fill-opacity:0; stroke-width: 0.02; stroke: #494936" d="M 280.032 58.8005 L 313.023,58.8005 L 313.023,59.9676"/>
  </g>
  <g>
    <path style="fill: #c9c9b6" d="M 345.972 48.3287 L 350.044,44.5291 L 380.447,44.5291 L 376.382,48.3287 L 345.972,48.3287z"/>
    <path style="fill: none; fill-opacity:0; stroke-width: 0.02; stroke: #494936" d="M 345.972 48.3287 L 350.044,44.5291 L 380.447,44.5291 L 376.382,48.3287 L 345.972,48.3287"/>
    <path style="fill: #b7b79d" d="M 345.972 48.3287 L 376.382,48.3287 L 376.382,54.0412 L 345.972,54.0412 L 345.972,48.3287z"/>
    <path style="fill: none; fill-opacity:0; stroke-width: 0.02; stroke: #494936" d="M 345.972 48.3287 L 376.382,48.3287 L 376.382,54.0412 L 345.972,54.0412 L 345.972,48.3287"/>
    <path style="fill: #7a7a5a" d="M 376.382 54.0412 L 380.447,49.9887 L 380.447,44.5291 L 376.382,48.3287 L 376.382,54.0412z"/>
    <path style="fill: none; fill-opacity:0; stroke-width: 0.02; stroke: #494936" d="M 376.382 54.0412 L 380.447,49.9887 L 380.447,44.5291 L 376.382,48.3287 L 376.382,54.0412"/>
    <path style="fill: #000000" d="M 346.938 47.6155 L 350.044,44.5291 L 379.728,44.5291 L 376.615,47.6155 L 346.938,47.6155z"/>
    <path style="fill: none; fill-opacity:0; stroke-width: 0.02; stroke: #000000" d="M 346.938 47.6155 L 350.044,44.5291 L 379.728,44.5291 L 376.615,47.6155 L 346.938,47.6155"/>
    <path style="fill: #c9c9b6" d="M 345.972 23.0864 L 349.331,20 L 379.728,20 L 376.382,23.0864 L 345.972,23.0864z"/>
    <path style="fill: none; fill-opacity:0; stroke-width: 0.02; stroke: #494936" d="M 345.972 23.0864 L 349.331,20 L 379.728,20 L 376.382,23.0864 L 345.972,23.0864"/>
    <path style="fill: #b7b79d" d="M 345.972 23.0864 L 376.609,23.0864 L 376.609,47.1422 L 345.972,47.1422 L 345.972,23.0864z"/>
    <path style="fill: none; fill-opacity:0; stroke-width: 0.02; stroke: #494936" d="M 345.972 23.0864 L 376.602,23.0864 L 376.602,47.1292 L 345.972,47.1292 L 345.972,23.0864"/>
    <path style="fill: #ffffff" d="M 348.624 26.1858 L 373.989,26.1858 L 373.989,44.7625 L 348.624,44.7625 L 348.624,26.1858z"/>
    <path style="fill: none; fill-opacity:0; stroke-width: 0.02; stroke: #494936" d="M 348.624 26.1858 L 373.983,26.1858 L 373.983,44.7496 L 348.624,44.7496 L 348.624,26.1858"/>
    <path style="fill: #7a7a5a" d="M 376.382 46.8893 L 379.728,43.563 L 379.728,20 L 376.382,23.0864 L 376.382,46.8893z"/>
    <path style="fill: none; fill-opacity:0; stroke-width: 0.02; stroke: #494936" d="M 376.382 46.8893 L 379.728,43.563 L 379.728,20 L 376.382,23.0864 L 376.382,46.8893"/>
    <path style="fill: #c9c9b6" d="M 340 58.8005 L 344.785,52.8546 L 377.802,52.8546 L 373.023,58.8005 L 340,58.8005z"/>
    <path style="fill: none; fill-opacity:0; stroke-width: 0.02; stroke: #494936" d="M 340.032 58.7615 L 344.785,52.8546 L 377.802,52.8546 L 373.023,58.8005 L 340.032,58.8005"/>
    <path style="fill: #7a7a5a" d="M 373.023 60 L 377.802,54.9943 L 377.802,52.8546 L 373.023,58.8005 L 373.023,60z"/>
    <path style="fill: none; fill-opacity:0; stroke-width: 0.02; stroke: #494936" d="M 373.043 59.9676 L 377.802,54.9943 L 377.802,52.8546 L 373.023,58.8005 L 373.023,59.9676"/>
    <path style="fill: #b7b79d" d="M 340 58.8005 L 373.023,58.8005 L 373.023,60 L 340,60 L 340,58.8005z"/>
    <path style="fill: none; fill-opacity:0; stroke-width: 0.02; stroke: #494936" d="M 340.032 58.8005 L 373.023,58.8005 L 373.023,59.9676"/>
  </g>
  <g>
    <path style="fill: #c9c9b6" d="M 405.972 48.3287 L 410.044,44.5291 L 440.447,44.5291 L 436.382,48.3287 L 405.972,48.3287z"/>
    <path style="fill: none; fill-opacity:0; stroke-width: 0.02; stroke: #494936" d="M 405.972 48.3287 L 410.044,44.5291 L 440.447,44.5291 L 436.382,48.3287 L 405.972,48.3287"/>
    <path style="fill: #b7b79d" d="M 405.972 48.3287 L 436.382,48.3287 L 436.382,54.0412 L 405.972,54.0412 L 405.972,48.3287z"/>
    <path style="fill: none; fill-opacity:0; stroke-width: 0.02; stroke: #494936" d="M 405.972 48.3287 L 436.382,48.3287 L 436.382,54.0412 L 405.972,54.0412 L 405.972,48.3287"/>
    <path style="fill: #7a7a5a" d="M 436.382 54.0412 L 440.447,49.9887 L 440.447,44.5291 L 436.382,48.3287 L 436.382,54.0412z"/>
    <path style="fill: none; fill-opacity:0; stroke-width: 0.02; stroke: #494936" d="M 436.382 54.0412 L 440.447,49.9887 L 440.447,44.5291 L 436.382,48.3287 L 436.382,54.0412"/>
    <path style="fill: #000000" d="M 406.938 47.6155 L 410.044,44.5291 L 439.728,44.5291 L 436.615,47.6155 L 406.938,47.6155z"/>
    <path style="fill: none; fill-opacity:0; stroke-width: 0.02; stroke: #000000" d="M 406.938 47.6155 L 410.044,44.5291 L 439.728,44.5291 L 436.615,47.6155 L 406.938,47.6155"/>
    <path style="fill: #c9c9b6" d="M 405.972 23.0864 L 409.331,20 L 439.728,20 L 436.382,23.0864 L 405.972,23.0864z"/>
    <path style="fill: none; fill-opacity:0; stroke-width: 0.02; stroke: #494936" d="M 405.972 23.0864 L 409.331,20 L 439.728,20 L 436.382,23.0864 L 405.972,23.0864"/>
    <path style="fill: #b7b79d" d="M 405.972 23.0864 L 436.609,23.0864 L 436.609,47.1422 L 405.972,47.1422 L 405.972,23.0864z"/>
    <path style="fill: none; fill-opacity:0; stroke-width: 0.02; stroke: #494936" d="M 405.972 23.0864 L 436.602,23.0864 L 436.602,47.1292 L 405.972,47.1292 L 405.972,23.0864"/>
    <path style="fill: #ffffff" d="M 408.624 26.1858 L 433.989,26.1858 L 433.989,44.7625 L 408.624,44.7625 L 408.624,26.1858z"/>
    <path style="fill: none; fill-opacity:0; stroke-width: 0.02; stroke: #494936" d="M 408.624 26.1858 L 433.983,26.1858 L 433.983,44.7496 L 408.624,44.7496 L 408.624,26.1858"/>
    <path style="fill: #7a7a5a" d="M 436.382 46.8893 L 439.728,43.563 L 439.728,20 L 436.382,23.0864 L 436.382,46.8893z"/>
    <path style="fill: none; fill-opacity:0; stroke-width: 0.02; stroke: #494936" d="M 436.382 46.8893 L 439.728,43.563 L 439.728,20 L 436.382,23.0864 L 436.382,46.8893"/>
    <path style="fill: #c9c9b6" d="M 400 58.8005 L 404.785,52.8546 L 437.802,52.8546 L 433.023,58.8005 L 400,58.8005z"/>
    <path style="fill: none; fill-opacity:0; stroke-width: 0.02; stroke: #494936" d="M 400.032 58.7615 L 404.785,52.8546 L 437.802,52.8546 L 433.023,58.8005 L 400.032,58.8005"/>
    <path style="fill: #7a7a5a" d="M 433.023 60 L 437.802,54.9943 L 437.802,52.8546 L 433.023,58.8005 L 433.023,60z"/>
    <path style="fill: none; fill-opacity:0; stroke-width: 0.02; stroke: #494936" d="M 433.043 59.9676 L 437.802,54.9943 L 437.802,52.8546 L 433.023,58.8005 L 433.023,59.9676"/>
    <path style="fill: #b7b79d" d="M 400 58.8005 L 433.023,58.8005 L 433.023,60 L 400,60 L 400,58.8005z"/>
    <path style="fill: none; fill-opacity:0; stroke-width: 0.02; stroke: #494936" d="M 400.032 58.8005 L 433.023,58.8005 L 433.023,59.9676"/>
  </g>
  <g>
    <path style="fill: #c9c9b6" d="M 145.972 48.3287 L 150.044,44.5291 L 180.447,44.5291 L 176.382,48.3287 L 145.972,48.3287z"/>
    <path style="fill: none; fill-opacity:0; stroke-width: 0.02; stroke: #494936" d="M 145.972 48.3287 L 150.044,44.5291 L 180.447,44.5291 L 176.382,48.3287 L 145.972,48.3287"/>
    <path style="fill: #b7b79d" d="M 145.972 48.3287 L 176.382,48.3287 L 176.382,54.0412 L 145.972,54.0412 L 145.972,48.3287z"/>
    <path style="fill: none; fill-opacity:0; stroke-width: 0.02; stroke: #494936" d="M 145.972 48.3287 L 176.382,48.3287 L 176.382,54.0412 L 145.972,54.0412 L 145.972,48.3287"/>
    <path style="fill: #7a7a5a" d="M 176.382 54.0412 L 180.447,49.9887 L 180.447,44.5291 L 176.382,48.3287 L 176.382,54.0412z"/>
    <path style="fill: none; fill-opacity:0; stroke-width: 0.02; stroke: #494936" d="M 176.382 54.0412 L 180.447,49.9887 L 180.447,44.5291 L 176.382,48.3287 L 176.382,54.0412"/>
    <path style="fill: #000000" d="M 146.938 47.6155 L 150.044,44.5291 L 179.728,44.5291 L 176.615,47.6155 L 146.938,47.6155z"/>
    <path style="fill: none; fill-opacity:0; stroke-width: 0.02; stroke: #000000" d="M 146.938 47.6155 L 150.044,44.5291 L 179.728,44.5291 L 176.615,47.6155 L 146.938,47.6155"/>
    <path style="fill: #c9c9b6" d="M 145.972 23.0864 L 149.331,20 L 179.728,20 L 176.382,23.0864 L 145.972,23.0864z"/>
    <path style="fill: none; fill-opacity:0; stroke-width: 0.02; stroke: #494936" d="M 145.972 23.0864 L 149.331,20 L 179.728,20 L 176.382,23.0864 L 145.972,23.0864"/>
    <path style="fill: #b7b79d" d="M 145.972 23.0864 L 176.609,23.0864 L 176.609,47.1422 L 145.972,47.1422 L 145.972,23.0864z"/>
    <path style="fill: none; fill-opacity:0; stroke-width: 0.02; stroke: #494936" d="M 145.972 23.0864 L 176.602,23.0864 L 176.602,47.1292 L 145.972,47.1292 L 145.972,23.0864"/>
    <path style="fill: #ffffff" d="M 148.624 26.1858 L 173.989,26.1858 L 173.989,44.7625 L 148.624,44.7625 L 148.624,26.1858z"/>
    <path style="fill: none; fill-opacity:0; stroke-width: 0.02; stroke: #494936" d="M 148.624 26.1858 L 173.983,26.1858 L 173.983,44.7496 L 148.624,44.7496 L 148.624,26.1858"/>
    <path style="fill: #7a7a5a" d="M 176.382 46.8893 L 179.728,43.563 L 179.728,20 L 176.382,23.0864 L 176.382,46.8893z"/>
    <path style="fill: none; fill-opacity:0; stroke-width: 0.02; stroke: #494936" d="M 176.382 46.8893 L 179.728,43.563 L 179.728,20 L 176.382,23.0864 L 176.382,46.8893"/>
    <path style="fill: #c9c9b6" d="M 140 58.8005 L 144.785,52.8546 L 177.802,52.8546 L 173.023,58.8005 L 140,58.8005z"/>
    <path style="fill: none; fill-opacity:0; stroke-width: 0.02; stroke: #494936" d="M 140.032 58.7615 L 144.785,52.8546 L 177.802,52.8546 L 173.023,58.8005 L 140.032,58.8005"/>
    <path style="fill: #7a7a5a" d="M 173.023 60 L 177.802,54.9943 L 177.802,52.8546 L 173.023,58.8005 L 173.023,60z"/>
    <path style="fill: none; fill-opacity:0; stroke-width: 0.02; stroke: #494936" d="M 173.043 59.9676 L 177.802,54.9943 L 177.802,52.8546 L 173.023,58.8005 L 173.023,59.9676"/>
    <path style="fill: #b7b79d" d="M 140 58.8005 L 173.023,58.8005 L 173.023,60 L 140,60 L 140,58.8005z"/>
    <path style="fill: none; fill-opacity:0; stroke-width: 0.02; stroke: #494936" d="M 140.032 58.8005 L 173.023,58.8005 L 173.023,59.9676"/>
  </g>
  <text font-size="36.7899" style="fill: #000000;text-anchor:start;font-family:sans-serif;font-style:normal;font-weight:normal" x="220" y="40">
    <tspan x="220" y="40">...</tspan>
  </text>
  <g>
    <path style="fill: #b7b79d" d="M 220 165.086 L 220,228.308 L 257.368,228.308 L 257.368,165.086 L 220,165.086z"/>
    <path style="fill: none; fill-opacity:0; stroke-width: 0.02; stroke: #494936" d="M 220 165.086 L 220,228.308 L 257.368,228.308 L 257.368,165.086 L 220,165.086"/>
    <path style="fill: #c9c9b6" d="M 220 165.086 L 225.064,160 L 262.42,160 L 257.368,165.086 L 220,165.086z"/>
    <path style="fill: none; fill-opacity:0; stroke-width: 0.02; stroke: #494936" d="M 220 165.086 L 225.064,160 L 262.174,160"/>
    <path style="fill: none; fill-opacity:0; stroke-width: 0.02; stroke: #494936" d="M 262.174 160.257 L 257.368,165.086 L 220,165.086"/>
    <path style="fill: #c9c9b6" d="M 222.303 168.763 L 239.371,168.763 L 239.371,177.058 L 222.303,177.058 L 222.303,168.763z"/>
    <path style="fill: none; fill-opacity:0; stroke-width: 0.02; stroke: #626248" d="M 222.303 168.763 L 239.36,168.763 L 239.36,177.046 L 222.303,177.046 L 222.303,168.763"/>
    <path style="fill: none; fill-opacity:0; stroke-width: 0.6; stroke: #ecece7" d="M 224.605 172.922 L 236.577,172.922"/>
    <path style="fill: #7a7a5a" d="M 257.368 228.308 L 262.42,223.211 L 262.42,160 L 257.368,165.086 L 257.368,228.308z"/>
    <path style="fill: none; fill-opacity:0; stroke-width: 0.02; stroke: #494936" d="M 257.368 228.308 L 262.174,223.468"/>
    <path style="fill: none; fill-opacity:0; stroke-width: 0.02; stroke: #494936" d="M 262.174 160.257 L 257.368,165.086 L 257.368,228.308"/>
    <path style="fill: none; fill-opacity:0; stroke-width: 0.6; stroke: #ecece7" d="M 220.469 224.139 L 257.357,224.139"/>
    <path style="fill: none; fill-opacity:0; stroke-width: 0.6; stroke: #000000" d="M 220.469 190.46 L 257.357,190.46"/>
    <path style="fill: none; fill-opacity:0; stroke-width: 0.6; stroke: #494936" d="M 220 223.681 L 257.323,223.681"/>
    <path style="fill: none; fill-opacity:0; stroke-width: 0.6; stroke: #000000" d="M 220 189.99 L 257.323,189.99"/>
    <path style="fill: none; fill-opacity:0; stroke-width: 0.02; stroke: #ecece7" d="M 222.303 176.61 L 222.303,168.763 L 238.902,168.763"/>
  </g>
  <g>
    <line style="fill: none; fill-opacity:0; stroke-width: 2; stroke: #000000" x1="58.5078" y1="51.9381" x2="212.303" y2="171.683"/>
    <polygon style="fill: #000000" points="218.221,176.291 207.259,174.092 212.303,171.683 213.402,166.202 "/>
    <polygon style="fill: none; fill-opacity:0; stroke-width: 2; stroke: #000000" points="218.221,176.291 207.259,174.092 212.303,171.683 213.402,166.202 "/>
  </g>
  <g>
    <line style="fill: none; fill-opacity:0; stroke-width: 2; stroke: #000000" x1="117.516" y1="55.3002" x2="213.515" y2="163.093"/>
    <polygon style="fill: #000000" points="218.504,168.694 208.119,164.551 213.515,163.093 215.587,157.901 "/>
    <polygon style="fill: none; fill-opacity:0; stroke-width: 2; stroke: #000000" points="218.504,168.694 208.119,164.551 213.515,163.093 215.587,157.901 "/>
  </g>
  <g>
    <line style="fill: none; fill-opacity:0; stroke-width: 2; stroke: #000000" x1="174.017" y1="58.9459" x2="220.166" y2="151.833"/>
    <polygon style="fill: #000000" points="223.503,158.549 214.576,151.818 220.166,151.833 223.532,147.369 "/>
    <polygon style="fill: none; fill-opacity:0; stroke-width: 2; stroke: #000000" points="223.503,158.549 214.576,151.818 220.166,151.833 223.532,147.369 "/>
  </g>
  <g>
    <line style="fill: none; fill-opacity:0; stroke-width: 2; stroke: #000000" x1="297.826" y1="60.0154" x2="259.426" y2="151.024"/>
    <polygon style="fill: #000000" points="256.51,157.934 255.791,146.776 259.426,151.024 265.004,150.664 "/>
    <polygon style="fill: none; fill-opacity:0; stroke-width: 2; stroke: #000000" points="256.51,157.934 255.791,146.776 259.426,151.024 265.004,150.664 "/>
  </g>
  <g>
    <line style="fill: none; fill-opacity:0; stroke-width: 2; stroke: #000000" x1="350.659" y1="60.0154" x2="268.584" y2="160.634"/>
    <polygon style="fill: #000000" points="263.844,166.445 266.29,155.536 268.584,160.634 274.039,161.857 "/>
    <polygon style="fill: none; fill-opacity:0; stroke-width: 2; stroke: #000000" points="263.844,166.445 266.29,155.536 268.584,160.634 274.039,161.857 "/>
  </g>
  <g>
    <line style="fill: none; fill-opacity:0; stroke-width: 2; stroke: #000000" x1="403.493" y1="60.0154" x2="269.772" y2="170.577"/>
    <polygon style="fill: #000000" points="263.992,175.356 268.512,165.13 269.772,170.577 274.885,172.837 "/>
    <polygon style="fill: none; fill-opacity:0; stroke-width: 2; stroke: #000000" points="263.992,175.356 268.512,165.13 269.772,170.577 274.885,172.837 "/>
  </g>
  <g>
    <path style="fill: #b7b79d" d="M 220 285.086 L 220,348.308 L 257.368,348.308 L 257.368,285.086 L 220,285.086z"/>
    <path style="fill: none; fill-opacity:0; stroke-width: 0.02; stroke: #494936" d="M 220 285.086 L 220,348.308 L 257.368,348.308 L 257.368,285.086 L 220,285.086"/>
    <path style="fill: #c9c9b6" d="M 220 285.086 L 225.064,280 L 262.42,280 L 257.368,285.086 L 220,285.086z"/>
    <path style="fill: none; fill-opacity:0; stroke-width: 0.02; stroke: #494936" d="M 220 285.086 L 225.064,280 L 262.174,280"/>
    <path style="fill: none; fill-opacity:0; stroke-width: 0.02; stroke: #494936" d="M 262.174 280.257 L 257.368,285.086 L 220,285.086"/>
    <path style="fill: #c9c9b6" d="M 222.303 288.763 L 239.371,288.763 L 239.371,297.058 L 222.303,297.058 L 222.303,288.763z"/>
    <path style="fill: none; fill-opacity:0; stroke-width: 0.02; stroke: #626248" d="M 222.303 288.763 L 239.36,288.763 L 239.36,297.046 L 222.303,297.046 L 222.303,288.763"/>
    <path style="fill: none; fill-opacity:0; stroke-width: 0.6; stroke: #ecece7" d="M 224.605 292.922 L 236.577,292.922"/>
    <path style="fill: #7a7a5a" d="M 257.368 348.308 L 262.42,343.211 L 262.42,280 L 257.368,285.086 L 257.368,348.308z"/>
    <path style="fill: none; fill-opacity:0; stroke-width: 0.02; stroke: #494936" d="M 257.368 348.308 L 262.174,343.468"/>
    <path style="fill: none; fill-opacity:0; stroke-width: 0.02; stroke: #494936" d="M 262.174 280.257 L 257.368,285.086 L 257.368,348.308"/>
    <path style="fill: none; fill-opacity:0; stroke-width: 0.6; stroke: #ecece7" d="M 220.469 344.139 L 257.357,344.139"/>
    <path style="fill: none; fill-opacity:0; stroke-width: 0.6; stroke: #000000" d="M 220.469 310.46 L 257.357,310.46"/>
    <path style="fill: none; fill-opacity:0; stroke-width: 0.6; stroke: #494936" d="M 220 343.681 L 257.323,343.681"/>
    <path style="fill: none; fill-opacity:0; stroke-width: 0.6; stroke: #000000" d="M 220 309.99 L 257.323,309.99"/>
    <path style="fill: none; fill-opacity:0; stroke-width: 0.02; stroke: #ecece7" d="M 222.303 296.61 L 222.303,288.763 L 238.902,288.763"/>
  </g>
  <g>
    <line style="fill: none; fill-opacity:0; stroke-width: 2; stroke: #000000" x1="241.211" y1="238.043" x2="241.211" y2="270.471"/>
    <polygon style="fill: #000000" points="241.211,230.543 246.211,240.543 241.211,238.043 236.211,240.543 "/>
    <polygon style="fill: none; fill-opacity:0; stroke-width: 2; stroke: #000000" points="241.211,230.543 246.211,240.543 241.211,238.043 236.211,240.543 "/>
    <polygon style="fill: #000000" points="241.211,277.971 236.211,267.971 241.211,270.471 246.211,267.971 "/>
    <polygon style="fill: none; fill-opacity:0; stroke-width: 2; stroke: #000000" points="241.211,277.971 236.211,267.971 241.211,270.471 246.211,267.971 "/>
  </g>
  <text font-size="12.7998" style="fill: #000000;text-anchor:start;font-family:sans-serif;font-style:normal;font-weight:normal" x="260" y="260">
    <tspan x="260" y="260">Replikation</tspan>
  </text>
  <text font-size="12.7998" style="fill: #000000;text-anchor:start;font-family:sans-serif;font-style:normal;font-weight:normal" x="460" y="40">
    <tspan x="460" y="40">Clients</tspan>
  </text>
  <text font-size="12.7998" style="fill: #000000;text-anchor:start;font-family:sans-serif;font-style:normal;font-weight:normal" x="300" y="200">
    <tspan x="300" y="200">Fileserver 1</tspan>
  </text>
  <text font-size="12.7998" style="fill: #000000;text-anchor:start;font-family:sans-serif;font-style:normal;font-weight:normal" x="300" y="320">
    <tspan x="300" y="320">Fileserver 2</tspan>
  </text>
</svg>
